<?xml version="1.0" encoding="utf-8"?>
<!-- Generator: Adobe Illustrator 25.0.0, SVG Export Plug-In . SVG Version: 6.00 Build 0)  -->
<svg version="1.1" id="Layer_1" xmlns="http://www.w3.org/2000/svg" xmlns:xlink="http://www.w3.org/1999/xlink" x="0px" y="0px"
	 viewBox="0 0 1085 634" style="enable-background:new 0 0 1085 634;" xml:space="preserve">
<style type="text/css">
	.st0{fill:#2196F3;}
	.st1{fill:#795548;}
	.st2{fill:#388E3C;}
	.st3{fill:#4CAF50;}
	.st4{fill:#8BC34A;}
	.st5{fill:#FFC107;}
	.st6{fill:#E6E6E6;}
	.st7{fill:#8697CB;}
	.st8{fill:#556080;}
	.st9{fill:#F0C419;}
</style>
<g>
	<path class="st0" d="M1084.5,533.7c0,0-16.7,33.3-66.7,33.3c-50,0-66.7-33.3-66.7-33.3S934.5,567,884.5,567s-66.7-33.3-66.7-33.3
		S801.2,567,751.2,567c-50,0-66.7-33.3-66.7-33.3S667.8,567,617.8,567s-66.7-33.3-66.7-33.3S534.5,567,484.5,567v66.7h600V533.7
		L1084.5,533.7z"/>
	<g>
		<path class="st1" d="M463.6,517c216.7-100,200-433.3,200-433.3H697c0,0,33.3,366.7-148.2,496.4L463.6,517z"/>
		<path class="st2" d="M413.6,133.7c-0.4-30.2,11.7-60.4,31.2-84.2c19.5-23.7,49.3-42.1,82.3-47.3c33-5.6,66.3,2.1,92.5,16.9
			C646,34,667,55,680.3,81.8c-29.5-4.3-54.8-10.4-78.4-13.5c-23.5-3.3-44.4-3.6-63.9-0.4s-38.7,10-59,21.1
			C458.5,100.1,437.7,116.4,413.6,133.7z M897,133.7l-58.2-29.5c-17.1-8.4-32.5-14.7-47.2-18.6c-14.7-4-29.3-6.2-47.3-6.1
			c-18-0.2-38.5,2.6-63.9,4.3c8.8-23.9,26.2-42.7,49.5-54.7c23-12,52.9-15.4,79.5-7.7c26.7,7.3,48.9,23.9,63.9,43.6
			C888,84.7,897.7,107.9,897,133.7L897,133.7z"/>
		<path class="st3" d="M680.3,83.7c-31.3,17.1-54.4,32.1-72.7,47.4c-18.3,15.2-30.8,29.8-43.1,46.6c-12.2,16.8-24.1,36.6-37,60.1
			c-13.2,23.4-26.4,49.8-47.3,79.3c-20.8-29.6-29.3-62.5-29.4-96.8c0.3-34,10.1-70.5,32.9-101.5C506,87.5,542,64.3,578.9,58.1
			C615.6,52,652.9,59.4,680.3,83.7z M847,333.7c-19.4-28.1-32.6-51.9-45-74.2c-10.9-20.2-22-40.2-33.4-60.1
			c-10.7-18.2-20.7-34.8-34.2-53c-13.3-18.4-30.8-37.3-54.1-62.8c30.8-15.6,66.2-15,98.4-2.2c32.2,12.8,59.7,38.3,76.4,67.8
			c16.4,28.6,24.6,61.3,23.6,94.2C877.3,275.2,869,306.8,847,333.7L847,333.7z"/>
		<path class="st4" d="M680.3,83.7C613.6,167,597,350.3,597,350.3 M680.3,83.7c1.9,31.1,2.6,53.7,1.2,76.5
			c-1.4,21.9-4.9,43.6-10.6,64.7c-5.9,21.8-14.3,42.9-25.1,62.8c-11.6,20.9-25.7,41.6-48.8,62.7c-18.4-25.7-25.4-51.6-28.5-77
			c-2.8-25.1-0.7-50.6,6-75c6.8-25.1,18.7-48.5,34.9-68.9C626.3,109,649.1,89.5,680.3,83.7L680.3,83.7z"/>
	</g>
	<path class="st5" d="M0.5,633.7l810,0c0,0-270-166-810-186.7L0.5,633.7L0.5,633.7z"/>
	<g>
		
			<ellipse transform="matrix(0.5839 -0.8118 0.8118 0.5839 -208.9171 346.8933)" class="st6" cx="233.9" cy="377.3" rx="220.5" ry="69.6"/>
		<g>
			<path class="st7" d="M178.9,334.6C116.4,242.5,44.8,185,14.4,204.3c-32.5,20.6-6,120.6,59.2,223.5c9.9,15.6,20.1,30.4,30.5,44.2
				c13.4-39.2,38.8-87.2,73.4-135.4C177.9,335.9,178.4,335.2,178.9,334.6z"/>
			<path class="st7" d="M320.4,541.8c0,0-18.9-39.6-59.6-30.8c-2.5-12.6-6.4-26.4-11.6-41.2c-28.4,32.2-56.8,57.6-81.4,73.2
				c34.7,30.9,65.2,44.7,82.6,33.8c9.6-6.1,14-19.1,13.8-37C293.1,526.3,320.4,541.8,320.4,541.8z"/>
		</g>
		<path class="st8" d="M244.2,554.4c34.7-36,76.3-12.6,76.3-12.6s-29.1-61.2-92.8-14.7L244.2,554.4z"/>
		<path class="st9" d="M39.2,243.5L9.5,292.8C18.8,324.4,35,361.6,57,400.2l36.1-71.8l80.3-2c-25.5-36.4-52.2-66.9-76.8-88.8
			L39.2,243.5z"/>
	</g>
</g>
</svg>
