<?xml version="1.0" encoding="utf-8"?>
<!-- Generator: Adobe Illustrator 25.0.0, SVG Export Plug-In . SVG Version: 6.00 Build 0)  -->
<svg version="1.1" id="Layer_1" xmlns="http://www.w3.org/2000/svg" xmlns:xlink="http://www.w3.org/1999/xlink" x="0px" y="0px"
	 viewBox="0 0 800 800" style="enable-background:new 0 0 800 800;" xml:space="preserve">
<style type="text/css">
	.st0{fill:#092E20;}
</style>
<g>
	<path class="st0" d="M249.7,436.4c0,47.5,24.9,73.6,70.7,73.6c9.9,0,18-0.6,30.7-2.3V364.5c-10.4-3.5-19.1-4.6-30.1-4.6
		C275.8,359.9,249.7,387.7,249.7,436.4z"/>
	<path class="st0" d="M712.5,0h-625C39.2,0,0,39.2,0,87.5v625C0,760.8,39.2,800,87.5,800h625c48.3,0,87.5-39.2,87.5-87.5v-625
		C800,39.2,760.8,0,712.5,0z M158.7,438.1c0-91,60.3-150.1,153.6-150.1c14.5,0,25.5,1.2,38.8,4.6V156.5h89.3v413.2
		c-45.8,8.7-79.4,12.2-115.9,12.2C215.5,581.9,158.7,532.6,158.7,438.1z M582.4,501.3c0,71.3-5.2,105.5-20.9,135.1
		c-14.5,28.4-33.6,46.4-73,66.1l-82.9-39.4c39.4-18.5,58.6-34.8,70.7-59.7c12.8-25.5,16.8-55.1,16.8-132.8V294.4h89.3V501.3z
		 M582.4,248.6h-89.3V157h89.3V248.6z"/>
</g>
</svg>
