<?xml version="1.0" encoding="utf-8"?>
<!-- Generator: Adobe Illustrator 25.0.0, SVG Export Plug-In . SVG Version: 6.00 Build 0)  -->
<svg version="1.1" id="Layer_1"
	xmlns="http://www.w3.org/2000/svg"
	xmlns:xlink="http://www.w3.org/1999/xlink" x="0px" y="0px" viewBox="0 0 800 800" style="enable-background:new 0 0 800 800;" xml:space="preserve">
	<style type="text/css">
	.st0{fill:#EE513B;}
	</style>
	<path class="st0" d="M735.4,364.7l-300-300c-19.5-19.5-51.1-19.5-70.7,0L303.3,126l0.9,0.9l80.1,80.1c5-1.5,10.3-2.4,15.7-2.4
	c29.3,0,53.1,23.8,53.1,53.1c0,5.5-0.8,10.8-2.4,15.7l80.6,80.6c5.2-1.7,10.6-2.6,16.3-2.6c29.3,0,53.1,23.8,53.1,53.1
	s-23.8,53.1-53.1,53.1c-29.3,0-53.1-23.8-53.1-53.1c0-7.8,1.7-15.2,4.7-21.9l-75-75v194.1c17.2,8.8,28.9,26.7,28.9,47.3
	c0,29.3-23.8,53.1-53.1,53.1c-29.3,0-53.1-23.8-53.1-53.1c0-22.7,14.3-42.1,34.4-49.7v-192c-20.1-7.6-34.4-27-34.4-49.7
	c0-8,1.8-15.6,4.9-22.4l-78.5-78.5l-0.5-0.5L64.6,364.7c-19.5,19.5-19.5,51.1,0,70.7l300,300c19.5,19.5,51.1,19.5,70.7,0l300-300
	C754.9,415.8,754.9,384.2,735.4,364.7z"/>
</svg>
