<?xml version="1.0" encoding="utf-8"?>
<!-- Generator: Adobe Illustrator 25.0.0, SVG Export Plug-In . SVG Version: 6.00 Build 0)  -->
<svg version="1.1" id="Layer_1" xmlns="http://www.w3.org/2000/svg" xmlns:xlink="http://www.w3.org/1999/xlink" x="0px" y="0px"
	 viewBox="0 0 550 270" style="enable-background:new 0 0 550 270;" xml:space="preserve">
<g>
	<g>
		<g>
			<path d="M465.5,208.7c0-10.3,0-20.2,0-30.4c4.3,0,8.3,0,12.5,0c0,20.3,0,40.4,0,60.8c-4.2,0-8.1,0-12.3,0
				c-0.2-1.6-0.3-3.3-0.4-4.9c-0.9-11.3-6.8-18.3-17.9-20.7c-8.2-1.7-16.5-1.6-24.5,1.3c-2.1,0.8-4.3,2-6,3.6
				c-3.6,3.4-2.3,8.7,2.2,10.7c5.5,2.5,15,0.4,18.5-4.4c1.4-1.9,1.8-4.4,2.8-7c3.6-0.4,7.5,0.5,11.2,2.4c0.4,0.2,0.9,1,0.9,1.5
				c0.1,5.1,0.1,10.2,0.1,15.2c0,0.7-0.1,1.4-0.2,2.2c-3.6,0-6.9,0-10.7,0c-0.1-1.4-0.2-2.8-0.3-4.4c-1.9,1.4-3.6,3.1-5.6,4
				c-6.4,3.2-13.3,3.3-20.2,1.8c-4.6-1-8.1-3.6-10.8-7.4c-5.4-7.7-3.8-17.9,3.6-23.9c5.9-4.8,13-6.8,20.3-7.9
				c3.5-0.5,7-0.6,10.5-0.9c1.2-6.3-2.2-11-8.5-11.7c-9.1-1-14.2,2.1-17.5,10.7c-0.3,0.7-0.5,1.3-0.9,2.3c-3.6-2.3-6.9-4.5-10.3-6.6
				c1.6-9.2,9.8-16.9,19.9-18.1c4.7-0.5,9.7-0.5,14.3,0.4c10.3,2,16.1,9.5,16.2,19.9c0.1,3.6,0.7,5.7,4.5,6.8
				C459.8,204.9,462.4,206.9,465.5,208.7z"/>
			<path d="M236.9,183.8c0-2.2,0-3.8,0-5.7c3.7,0,7.3-0.1,10.8,0.1c0.5,0,1.4,1,1.4,1.6c0.2,2,0.1,4,0.1,6c0,15.6,0.1,31.2-0.1,46.8
				c-0.1,3.9-0.5,8-1.4,11.8c-2.2,9.1-8,15.2-16.9,17.9c-8.7,2.6-17.6,2.7-26.2-0.7c-6.4-2.5-10.7-7-12.5-14.2
				c4.1-1.3,8.1-2.5,12.1-3.7c4.3,7.3,11.6,9.9,20.7,7.4c7.3-2,11.5-8.3,11.4-17.3c-0.2,0.1-0.5,0-0.7,0.2c-7,7.5-15.8,7.9-25,5.5
				c-9.9-2.6-16-9.3-18.7-19c-2.3-7.9-2.2-16-0.1-23.9c4.4-15.7,17.5-21.5,31.1-20.1C229.5,177.3,232.3,178.8,236.9,183.8z
				 M219.9,228.6c7.5,0,12.6-3.7,14.9-10.8c1.6-4.9,1.6-9.8,0.9-14.8c-1.2-8.5-6.9-14-14.8-14.4c-8.8-0.4-14.9,4.2-17,12.8
				c-1.2,5-1.1,10.1,0.2,15.1C206.2,224.2,211.9,228.6,219.9,228.6z"/>
			<path d="M328.5,181c-4,1.9-8.1,3.8-12.3,5.8c-0.7-2-1.3-3.7-2-5.5c-2.8-7.3-8.2-11.1-15.9-11.6c-14.3-1-23.7,5.9-26.7,20
				c-2,9.3-1.6,18.4,2.9,27c6,11.5,21.6,15.7,32.7,8.9c4.2-2.6,6.7-6.2,8.3-10.8c0.4-1.4,0.9-2.7,1.4-4.3c4.3,1.6,8.4,3.2,12.5,4.8
				c-2.8,13.5-14,23.8-27.9,25.6c-11.9,1.5-22.8-0.5-32-8.9c-5.1-4.7-8.5-10.6-10.3-17.3c-3.1-11.3-3.1-22.6,0.8-33.7
				c5.9-16.8,21.4-26.1,39.2-24.1c8.1,0.9,15.4,3.3,21.3,9.2C324.5,170.3,326.8,175.3,328.5,181z"/>
			<path d="M337.4,239.2c0-27.6,0-54.9,0-82.3c4.2,0,8.4,0,12.7,0c0,8.4,0,16.7,0,25.6c1.5-1.1,2.6-2.1,3.8-2.7
				c8.7-4.7,17.7-4.6,26.4-0.2c8.2,4.2,11.5,11.6,11.5,20.4c0.1,12.3,0.1,24.6,0.1,37c0,0.6-0.1,1.3-0.2,2.2
				c-3.8,0-7.6,0.1-11.4-0.1c-0.5,0-1.3-1.5-1.3-2.3c-0.1-8.9-0.1-17.8-0.1-26.7c0-2.9,0.1-5.8,0-8.7c-0.2-11.3-8-14.3-16.7-12.3
				c-7.5,1.7-11.9,7.8-12,16.1c-0.1,10.3-0.1,20.5,0.1,30.8c0.1,2.8-0.8,3.6-3.6,3.4C343.7,239.1,340.7,239.2,337.4,239.2z"/>
			<path d="M116.6,239.1c-3.7,0-7,0-10.7,0c0-1.6,0-3,0-4.8c-7.7,7.9-16.8,8.2-26.2,6.1c-7.3-1.6-12.4-7.5-13.3-15.1
				c-0.9-7.4,2-13.1,8.4-17c7-4.3,14.9-5.5,22.8-6.9c1.1-0.2,2.1-0.4,3.2-0.5c3.7-0.5,3.8-0.7,3.1-4.5c-0.7-3.7-2.8-6.1-6.3-7
				c-6.6-1.7-15.8-1-19.5,9.3c-0.4,1-0.8,2-1.3,3.2c-3.2-2.1-6.3-3.9-9.3-6.1c-0.5-0.4-0.8-1.9-0.5-2.7
				c3.8-10.8,12.1-15.7,23.1-16.4c7.7-0.5,15.1,0.6,21,6.3c3.8,3.7,5.7,8.3,5.8,13.4c0.2,13.9,0.1,27.8,0.1,41.6
				C116.8,238.1,116.7,238.5,116.6,239.1z M104.1,211.2c-5.9,1.4-11.4,2.5-16.8,3.9c-1.8,0.5-3.6,1.4-5.1,2.5
				c-4.3,3.3-3.7,9.2,1.1,11.5c5.4,2.6,15.1,0.4,18.7-4.4c1-1.3,1.7-3.1,1.9-4.6C104.3,217.4,104.1,214.6,104.1,211.2z"/>
			<path d="M128.3,239.2c0-20.4,0-40.5,0-60.9c4,0,8,0,12.2,0c0,1.3,0,2.6,0,4.3c0.9-0.7,1.4-1,1.9-1.4c11.4-9.5,32.7-4.7,38.3,8.7
				c1.1,2.7,1.9,5.7,1.9,8.7c0.2,13,0.1,25.9,0.1,38.9c0,0.5-0.1,1-0.2,1.9c-3.8,0-7.5,0-11.2,0c-1.9,0-1.5-1.5-1.5-2.6
				c0-11.3,0-22.7,0-34c0-1.4,0-2.9-0.2-4.3c-1.3-7.5-7.6-11.2-15.9-9.3c-7.3,1.6-12.3,7.3-12.5,14.8c-0.2,10.8-0.2,21.6-0.1,32.3
				c0,2.6-0.8,3.3-3.2,3.1C134.8,239.1,131.8,239.2,128.3,239.2z"/>
			<path d="M544.6,239.2c-3.8,0-7.5-0.1-11.1,0c-1.9,0-1.6-1.3-1.6-2.5c0-6.8,0-13.6,0-20.4c0-4.5,0-9.1,0-13.6
				c0-7.8-2.3-11.9-7.7-13.5c-6.8-2.1-14.8,0.5-18.3,6.3c-1.5,2.5-2.6,5.6-2.6,8.4c-0.3,10.7-0.3,21.4-0.2,32.1
				c0,2.5-0.7,3.3-3.2,3.2c-3.2-0.2-6.3-0.1-9.6-0.1c0-20.4,0-40.5,0-60.9c4,0,8,0,12.2,0c0.1,1.3,0.1,2.6,0.2,4.3
				c4-3.9,8.7-5.6,13.9-6c9.6-0.8,18.1,1.1,24.1,9.5c2.6,3.7,3.9,7.8,3.9,12.2c0.1,13.2,0.1,26.3,0.1,39.5
				C544.8,238.1,544.7,238.5,544.6,239.2z"/>
			<path d="M17.9,226.9c15,0,29.4,0,44,0c0,4.2,0,8.1,0,12.2c-18.9,0-37.6,0-56.6,0c0-27.4,0-54.8,0-82.2c4.2,0,8.2,0,12.6,0
				C17.9,180.1,17.9,203.3,17.9,226.9z"/>
			<path d="M471.7,173.5c-4.8-0.1-8.4-3.8-8.3-8.5c0.1-4.5,3.9-8.3,8.5-8.1c4.5,0.1,8.3,3.8,8.3,8.4
				C480.2,169.8,476.5,173.5,471.7,173.5z"/>
		</g>
		<g>
			<path d="M140.6,69.7c0.9-5,1.5-10,2.8-14.9c7.3-26.9,30.9-46.7,58.8-49.4c2.8-0.3,5.6-0.4,8.4-0.4c43.5,0,87,0,130.5,0
				c33.4,0,62.1,24.3,67.4,57.2c6.3,38-20.8,73.8-59.1,78.3c-2.6,0.3-5.2,0.5-7.9,0.5c-44.2,0.1-88.5,0-132.7,0
				c-35.4,0-65-27.3-67.8-62.4c-0.1-0.8-0.3-1.5-0.5-2.3C140.6,74.1,140.6,71.9,140.6,69.7z M276.7,111.7c-2.9-3.4-5.4-6.3-7.7-9.3
				c-1.3-1.7-2.7-3.4-3.4-5.4c-4.4-12-10.3-23-19.3-32.1c-8.7-8.9-18.1-17.3-23.1-29.3c-2.2-5.5-7.5-8-13.3-8.8
				c-7.3-1-12.8,2.1-14.2,7.7c-0.3,1-1.4,1.9-2.2,2.6c-3.6,3.4-5,7.5-3.6,12.3c0.3,0.9,0.9,1.7,1.5,2.7c0.7-1.7,1.1-2.9,1.6-4.1
				c0.1,0.3,0.2,0.6,0.2,0.9c2.6,0.3,5.2,1,7.8,0.9c1.6-0.1,2.5,0.1,2.9,1.5c1.5,4.5,3.4,9,4.2,13.7c1.9,11.3,5.2,21.4,14.9,28.7
				c1,0.8,1.3,2.6,1.6,4c0.6,2.6,0.5,5.4,1.5,7.9c1.2,3.2,0.2,5.4-3.3,5.4c-1.9,0-3.8-0.5-5.6-0.9c-3.3-0.6-7.2,1.1-7.8,3.7
				c0.8-0.3,1.5-0.6,2.5-1c0.8,1.1,1.5,2.1,2.2,3.2c0.5-0.2,1.7-0.9,2-0.7c2.1,1.6,3.8,0.3,5.5-0.6c2.4-1.3,4.8-2.1,7.5-0.8
				c-0.9,0.6-1.8,1.1-2.8,1.7c2.3,0.3,4.4,1,6.3,0.7s3.7-1.4,6-2.4c-1.3,2-2.2,3.4-3.2,4.9c0.2,0.3,0.4,0.5,0.7,0.9
				c2.1-1,4.2-1.9,6.1-3c1.9-1,3.6-2.4,5.8-1.3c2.4,1.2,4.5,0.7,7.1-1.2c-1.6-0.5-2.8-1-4-1.2c-1.5-0.3-3.2,0.1-4.5-0.4
				c-0.9-0.3-2-2-1.9-2.7c0.8-3,2.1-5.8,3.3-9c3.9,2.3,9.7,2.8,12.7,8c1.2,2,3.3,3.4,6.3,2.3c1.3-0.5,3.1,0.3,4.6,0.4
				C273.2,111.8,274.6,111.7,276.7,111.7z M370,54.7c-0.7-9.2-5.1-16.8-14.4-20.9c-9.4-4.1-18.2-2.3-25.8,4.4
				c-3.9,3.5-8,7-11.1,11.2c-3.7,5.2-8.1,9.1-13.4,12.7c-4.9,3.4-9,8.2-13,12.7c-8.5,9.5-7.9,23.7,1.1,32.5s23.1,9.2,32.6,0.7
				c4-3.7,8.3-7.3,11.5-11.5c3.8-5,8-9,13.2-12.5c5.2-3.6,9.5-8.7,13.8-13.5C368.3,66.3,369.8,61.1,370,54.7z"/>
			<path d="M234.7,100.8c2.1,2.8,4.2,5.5,6,8.3c0.3,0.4,0.1,1.6-0.3,2.1c-1.4,1.9-4.1,2-6,0.5c-0.6-0.5-1.6-0.4-2.5-0.6
				c-0.9-0.3-1.9-0.6-2.8-1.3C233.6,108.1,233.9,104.1,234.7,100.8z"/>
			<path d="M312.3,70c1.1,5.3,3.6,9.9,7.6,13.4c1.4,1.1,2.9,2.2,4.5,3.1c3.6,2,4.5,1.6,6.1-2.1c0.5-1.2,0.9-2.6,0.9-3.9
				c0-0.9-0.7-2.1-1.5-2.5c-8.8-4.9-10.4-14.9-3.3-22.1c3.1-3.2,6.3-6.3,9.5-9.4c5.9-5.7,14.4-5.7,19.7-0.2c5.3,5.6,4.8,13.9-1,19.7
				c-3.5,3.4-6.7,7.2-10.5,11.3c-0.6-1.9-0.9-2.8-1.1-3.7c-2.2-6.8-6.6-11.8-13.1-14.9c-1.5-0.7-2.6-0.5-3.3,1
				c-0.7,1.4-1.3,2.8-1.7,4.3c-0.7,2.1-0.2,3.6,2,4.8c7.5,4.2,9.2,14.2,3.4,20.5c-3.6,3.9-7.3,7.6-11.1,11.2
				c-5.5,5-13.7,4.8-18.7-0.3c-5.1-5.1-5.2-13.5-0.2-19c3.6-3.9,7.3-7.9,10.9-11.8C311.6,69.5,312,69.7,312.3,70z"/>
		</g>
	</g>
</g>
</svg>
