<?xml version="1.0" encoding="utf-8"?>
<!-- Generator: Adobe Illustrator 25.0.0, SVG Export Plug-In . SVG Version: 6.00 Build 0)  -->
<svg version="1.1" id="Layer_1" xmlns="http://www.w3.org/2000/svg" xmlns:xlink="http://www.w3.org/1999/xlink" x="0px" y="0px"
	 viewBox="0 0 420 310" style="enable-background:new 0 0 420 310;" xml:space="preserve">
<g>
	<path d="M5.5,238.9c0,26.9,17.3,45.7,41.3,45.7s41.3-18.8,41.3-45.7s-17.3-45.7-41.3-45.7S5.5,211.9,5.5,238.9z M72.3,238.9
		c0,19.3-10.5,31.7-25.4,31.7s-25.4-12.5-25.4-31.7s10.5-31.7,25.4-31.7S72.3,219.6,72.3,238.9z"/>
	<path d="M132.6,284.6c18.2,0,28.5-15.3,28.5-33.7s-10.4-33.7-28.5-33.7c-8.4,0-14.6,3.3-18.7,8.2v-6.9H99.1v87.1h14.8v-29
		C118,281.2,124.2,284.6,132.6,284.6L132.6,284.6z M113.6,249c0-12.2,6.9-18.9,16.1-18.9c10.7,0,16.6,8.4,16.6,20.8
		s-5.8,20.8-16.6,20.8c-9.1,0-16.1-6.8-16.1-18.8V249z"/>
	<path d="M201.2,284.6c13,0,23.2-6.8,27.8-18.2l-12.7-4.8c-2,6.7-7.8,10.4-15.1,10.4c-9.5,0-16.2-6.8-17.3-17.9h45.5v-4.9
		c0-17.8-10-32-28.8-32s-30.9,14.7-30.9,33.7C169.7,270.8,182.7,284.6,201.2,284.6L201.2,284.6z M200.5,229.6
		c9.4,0,13.8,6.2,14,13.3h-29.8C186.9,234.2,192.8,229.6,200.5,229.6L200.5,229.6z"/>
	<path d="M240.5,283.2h14.8v-38c0-9.3,6.8-14.2,13.5-14.2c8.2,0,11.4,5.8,11.4,13.8v38.4H295v-42.7c0-14-8.2-23.3-21.7-23.3
		c-8.4,0-14.2,3.8-17.9,8.2v-6.9h-14.8V283.2z"/>
	<path d="M338.4,194.5l-33.6,88.7h15.7l7.5-20.3h38.3l7.7,20.3h15.9l-33.6-88.7H338.4z M347.1,212l14.1,37.1h-27.9L347.1,212z"/>
	<path d="M415.4,194.8h-15.8v88.7h15.8V194.8z"/>
</g>
<path d="M281,71.7c3.7-11.2,2.4-23.5-3.5-33.7c-9-15.6-27.1-23.7-44.7-19.9c-7.8-8.8-19.1-13.9-30.9-13.8c-18,0-34,11.6-39.6,28.7
	c-11.6,2.4-21.6,9.6-27.4,19.9c-9.1,15.6-7,35.3,5.1,48.7c-3.7,11.2-2.4,23.5,3.5,33.7c9,15.6,27.1,23.7,44.7,19.9
	c7.8,8.8,19.1,13.9,30.9,13.8c18,0,34.1-11.6,39.6-28.7c11.6-2.4,21.6-9.6,27.4-19.9C295.2,104.7,293.1,85.1,281,71.7L281,71.7z
	 M219.1,158.2c-7.2,0-14.2-2.5-19.8-7.1c0.3-0.1,0.7-0.4,1-0.6l32.8-18.9c1.7-1,2.7-2.7,2.7-4.7V80.7l13.9,8
	c0.1,0.1,0.2,0.2,0.3,0.4v38.3C249.9,144.4,236.1,158.2,219.1,158.2L219.1,158.2z M152.8,129.9c-3.6-6.2-4.9-13.6-3.7-20.7
	c0.2,0.1,0.7,0.4,1,0.6l32.8,18.9c1.7,1,3.7,1,5.4,0l40-23.1v16c0,0.2-0.1,0.3-0.2,0.4l-33.2,19.1
	C180.2,149.7,161.3,144.7,152.8,129.9L152.8,129.9z M144.1,58.3c3.6-6.3,9.3-11,16.1-13.5c0,0.3,0,0.8,0,1.1v37.9
	c0,1.9,1,3.7,2.7,4.7l40,23.1l-13.9,8c-0.1,0.1-0.3,0.1-0.5,0l-33.2-19.2C140.7,91.9,135.6,73.1,144.1,58.3L144.1,58.3z M258,84.8
	l-40-23.1l13.9-8c0.1-0.1,0.3-0.1,0.5,0l33.2,19.1c14.8,8.5,19.8,27.4,11.3,42.2c-3.6,6.2-9.3,11-16.1,13.5v-39
	C260.7,87.6,259.7,85.8,258,84.8L258,84.8z M271.8,64.1c-0.2-0.1-0.7-0.4-1-0.6L238,44.5c-1.7-1-3.7-1-5.4,0l-40,23.1v-16
	c0-0.2,0.1-0.3,0.2-0.4L226,32.1c14.8-8.5,33.6-3.4,42.2,11.3C271.7,49.7,273,57,271.8,64.1L271.8,64.1z M185.1,92.6l-13.9-8
	c-0.1-0.1-0.2-0.2-0.3-0.4V45.9c0-17,13.8-30.9,30.9-30.8c7.2,0,14.2,2.5,19.7,7.1c-0.3,0.1-0.7,0.4-1,0.6l-32.8,18.9
	c-1.7,1-2.7,2.7-2.7,4.7L185.1,92.6L185.1,92.6z M192.6,76.4l17.8-10.3l17.8,10.3v20.6l-17.8,10.3l-17.8-10.3V76.4z"/>
</svg>
