<?xml version="1.0" encoding="utf-8"?>
<!-- Generator: Adobe Illustrator 25.0.0, SVG Export Plug-In . SVG Version: 6.00 Build 0)  -->
<svg version="1.1" id="Layer_1" xmlns="http://www.w3.org/2000/svg" xmlns:xlink="http://www.w3.org/1999/xlink" x="0px" y="0px"
	 viewBox="0 0 520 500" style="enable-background:new 0 0 520 500;" xml:space="preserve">
<style type="text/css">
	.st0{fill:none;stroke:#000000;stroke-width:22;stroke-miterlimit:10;enable-background:new    ;}
</style>
<g>
	<path d="M338.5,278.3c2.4,0,4.3-1.9,4.3-4.3s-1.9-4.3-4.3-4.3h-8.6v-8.6h8.6c2.4,0,4.3-1.9,4.3-4.3c0-2.4-1.9-4.3-4.3-4.3h-8.6
		v-2.3c0-8.2-6.7-14.9-14.9-14.9h-2.3v-8.6c0-2.4-1.9-4.3-4.3-4.3c-2.4,0-4.3,1.9-4.3,4.3v8.6h-8.6v-8.6c0-2.4-1.9-4.3-4.3-4.3
		c-2.4,0-4.3,1.9-4.3,4.3v8.6H278v-8.6c0-2.4-1.9-4.3-4.3-4.3s-4.3,1.9-4.3,4.3v8.6h-8.6v-8.6c0-2.4-1.9-4.3-4.3-4.3
		c-2.4,0-4.3,1.9-4.3,4.3v8.6h-8.6v-8.6c0-2.4-1.9-4.3-4.3-4.3c-2.4,0-4.3,1.9-4.3,4.3v8.6h-2.3c-8.2,0-14.9,6.7-14.9,14.9v2.3h-8.6
		c-2.4,0-4.3,1.9-4.3,4.3c0,2.4,1.9,4.3,4.3,4.3h8.6v8.6h-8.6c-2.4,0-4.3,1.9-4.3,4.3s1.9,4.3,4.3,4.3h8.6v8.6h-8.6
		c-2.4,0-4.3,1.9-4.3,4.3c0,2.4,1.9,4.3,4.3,4.3h8.6v8.6h-8.6c-2.4,0-4.3,1.9-4.3,4.3s1.9,4.3,4.3,4.3h8.6v8.6h-8.6
		c-2.4,0-4.3,1.9-4.3,4.3c0,2.4,1.9,4.3,4.3,4.3h8.6v2.3c0,8.2,6.7,14.9,14.9,14.9h2.3v8.6c0,2.4,1.9,4.3,4.3,4.3
		c2.4,0,4.3-1.9,4.3-4.3v-8.6h8.6v8.6c0,2.4,1.9,4.3,4.3,4.3c2.4,0,4.3-1.9,4.3-4.3v-8.6h8.6v8.6c0,2.4,1.9,4.3,4.3,4.3
		s4.3-1.9,4.3-4.3v-8.6h8.6v8.6c0,2.4,1.9,4.3,4.3,4.3c2.4,0,4.3-1.9,4.3-4.3v-8.6h8.6v8.6c0,2.4,1.9,4.3,4.3,4.3
		c2.4,0,4.3-1.9,4.3-4.3v-8.6h2.3c8.2,0,14.9-6.7,14.9-14.9v-2.3h8.6c2.4,0,4.3-1.9,4.3-4.3s-1.9-4.3-4.3-4.3h-8.6v-8.6h8.6
		c2.4,0,4.3-1.9,4.3-4.3s-1.9-4.3-4.3-4.3h-8.6v-8.6h8.6c2.4,0,4.3-1.9,4.3-4.3c0-2.4-1.9-4.3-4.3-4.3h-8.6v-8.6H338.5z
		 M314.9,338.8h-82.4c-3.5,0-6.3-2.8-6.3-6.3v-82.4c0-3.5,2.8-6.3,6.3-6.3h82.4c3.5,0,6.3,2.8,6.3,6.3v82.5h0
		C321.2,336,318.4,338.8,314.9,338.8z"/>
	<path d="M404.6,274.8l51.9-33.9c2.4,2.2,5,4.2,8.1,5.7c17.6,8.6,38.7,1.4,47.3-16.2c8.6-17.5,1.3-38.7-16.2-47.3
		c-17.5-8.6-38.7-1.4-47.3,16.2c-4.3,8.7-4.6,18.3-1.7,26.8l-51.7,33.8C398.7,264.5,402,269.5,404.6,274.8z"/>
	<path d="M461.6,390.7c-13.4-7.1-29.3-4.6-40.1,4.9l-36.8-24.5c-0.2,0.3-0.3,0.6-0.4,0.9c-2.7,5.1-5.9,9.7-9.4,14l36.8,24.5
		c-5.6,16.1,1.2,34.4,16.8,42.7c17.2,9.2,38.6,2.6,47.8-14.6C485.4,421.2,478.8,399.8,461.6,390.7z"/>
	<path d="M201.7,431.7l16.1-41.1c-5.7-1.5-11.2-3.6-16.6-6.5l-16.1,41.1c-12.7-1.5-25.7,3.8-33.4,15.1c-11,16.1-6.8,38.1,9.4,49.1
		c16.1,11,38.1,6.8,49.1-9.3C221,464.3,217.1,442.9,201.7,431.7z"/>
	<path d="M124.2,349.2l-54.8,18.3c-6.3-9.7-17.2-16.1-29.6-16.1c-19.5,0-35.3,15.8-35.3,35.3c0,19.5,15.8,35.4,35.3,35.4
		c19.5,0,35.4-15.8,35.4-35.4c0-0.8-0.2-1.6-0.2-2.4l54.9-18.4C127.4,360.8,125.4,355.1,124.2,349.2z"/>
	<path class="st0" d="M396.5,368.7c-14.9,12.6-34.8,19.7-55.2,19.7l-168.7,1.3c-71.1-4-72-97.4-0.8-102.5l0.7,0
		C122.9,165,328.4,114.6,353,243C418.8,250.1,446.2,329,396.5,368.7z"/>
	<path d="M121.2,282.6c8-5.3,18.3-8.9,30.7-9.8l0.7,0c-2-4.9-3.6-9.8-4.8-14.5c-1.7,0.1-3.5,0.2-5.3,0.2
		c-43.5,0-78.9-35.4-78.9-78.9c0-43.5,35.4-78.9,78.9-78.9c35.3,0,65.3,23.3,75.3,55.3c7.4-1.6,15-2.5,22.7-2.6
		c-2.7-10.1-6.9-19.6-12.4-28.2l18.1-25.3L222.2,76l-25.3,18.1c-9.8-6.2-20.7-10.9-32.4-13.4L159.5,50h-33.8l-5.1,30.6
		c-11.7,2.6-22.6,7.2-32.4,13.4L62.9,76L38.9,99.9L57,125.2c-6.2,9.8-10.9,20.7-13.4,32.4l-30.6,5.1v33.8l30.6,5.1
		c2.6,11.7,7.2,22.6,13.4,32.4l-18.1,25.3l23.9,23.9l25.3-18.1c9.8,6.2,20.7,10.9,32.4,13.4L121.2,282.6z"/>
	<path d="M145.3,244.4c-0.3-3.1-0.5-6.1-0.4-9.1c-0.8,0-1.6,0.1-2.4,0.1c-1.9,0-3.8-0.1-5.7-0.3c-5.2-9.2-9-18.5-11.3-28
		c10.8-7.6,22.1-13.8,34-18.8v0c0.4,0.5,0.9,1,1.5,1.5c4-5.1,8.7-9.7,13.9-13.8c-0.1,0-0.2,0-0.2,0.1c-1.6-2-4-3.3-6.5-3.6
		c-1.2-5-2.8-9.9-4.6-14.7c1.6-1.4,2.7-3.2,3.2-5.2c5.3-0.5,10.7-0.7,16.1-0.6c2.7,0,5.4,0.1,8.2,0.2c2,3.5,3.6,7.3,4.8,11.2
		c2.8-1.2,5.6-2.4,8.4-3.4c-8.4-26.1-32.9-45.1-61.8-45.1c-35.8,0-64.8,29.1-64.8,64.8c0,35.8,29.1,64.8,64.8,64.8
		C143.5,244.4,144.4,244.4,145.3,244.4z M157.4,182.1C157.4,182.1,157.4,182.1,157.4,182.1c-11.6,4.9-22.7,10.9-33.3,18.1
		c-1.8-10.4-2-20.9-0.7-31.7c2.2-0.3,4.2-1.4,5.7-3c9.9,4.2,19.4,9.3,28.4,15.2C157.4,181.2,157.4,181.6,157.4,182.1z M160.5,174.9
		c-9.1-6-18.8-11.1-28.8-15.4c0-0.1,0-0.2,0-0.3c5.6-1.7,11.3-3.1,17.1-4.2c1.7,3.1,5,5,8.5,5c0.1,0,0.2,0,0.3,0
		c1.7,4.5,3.1,9.2,4.3,13.9C161.4,174.2,161,174.6,160.5,174.9z M186.6,145.4c-2.5-0.1-5-0.1-7.5,0c-4.3,0.1-8.7,0.3-13,0.7
		c-1.6-3.4-5-5.5-8.7-5.5c-0.5,0-0.9,0-1.4,0.1c-3-5.8-6.4-11.4-10.2-16.7C162.4,124.9,177.1,133.1,186.6,145.4z M137.9,124
		c4.7,6.4,8.8,13,12.3,19.6c-1.3,1.4-2.2,3.1-2.5,5c-6,1.2-12,2.7-17.9,4.4c-0.7-1-1.7-1.8-2.7-2.5c2.4-8.7,5.9-17.6,10.2-26.5
		C137.5,124.1,137.7,124.1,137.9,124z M129.6,125.4c-3.7,8-6.6,16-8.7,23.9c-2.7,0.3-5.1,1.7-6.7,3.9c-5.9-1.9-11.8-3.5-17.8-4.9
		C104.2,136.8,116,128.6,129.6,125.4z M92.9,154.1c6.6,1.5,13.1,3.2,19.3,5.2c0,0,0,0,0,0c-8.4,3.5-16.7,7.6-24.9,12.2
		C88.2,165.5,90.1,159.6,92.9,154.1z M86.8,179.6c0-0.1,0-0.1,0-0.2c9.1-5.5,18.4-10.2,27.9-14.1v0c0.7,0.8,1.6,1.5,2.5,2
		c-1.6,12.5-1.2,24.8,1.2,36.9c-5.7,4.2-11.3,8.7-16.6,13.4C92.5,207.7,86.8,194.3,86.8,179.6z M106.5,222.2
		c4.4-3.9,8.9-7.6,13.5-11.1h0c2.1,7.6,5,15.2,8.8,22.6C120.6,231.6,112.9,227.6,106.5,222.2z"/>
	<path d="M345.4,125.3c-0.6-10.8-9.7-19.1-20.5-18.5c-10.8,0.6-19.1,9.7-18.5,20.5c0.6,10.8,9.7,19.1,20.5,18.5
		C337.7,145.3,346,136.1,345.4,125.3L345.4,125.3z M401.7,141.9l-27.6,1.4c-1.9-36.8-33.3-65.1-70.1-63.2l-1.4-27.6
		C354.6,49.9,399,89.9,401.7,141.9L401.7,141.9L401.7,141.9z M421.2,140.9c-3.3-62.8-56.9-111.1-119.7-107.8L300,4.6
		c78.5-4.1,145.5,56.3,149.6,134.8L421.2,140.9z"/>
</g>
</svg>
