<?xml version="1.0" encoding="utf-8"?>
<!-- Generator: Adobe Illustrator 25.0.0, SVG Export Plug-In . SVG Version: 6.00 Build 0)  -->
<svg version="1.1" id="Layer_1"
	xmlns="http://www.w3.org/2000/svg"
	xmlns:xlink="http://www.w3.org/1999/xlink" x="0px" y="0px" viewBox="0 0 800 800" style="enable-background:new 0 0 800 800;" xml:space="preserve">
	<style type="text/css">
	.st0{fill:#3178C6;}
	</style>
	<path class="st0" d="M717.2,50H82.8C64.7,50,50,64.7,50,82.8v634.4c0,18.1,14.7,32.8,32.8,32.8h634.4c18.1,0,32.8-14.7,32.8-32.8
	V82.8C750,64.7,735.3,50,717.2,50z M427.3,403h-100l0,281.3H248V403h-99.5v-63.2h278.8V403z M679,635.4
	c-7.1,12.8-17.2,23.7-29.5,31.7c-13.3,8.5-28,14.4-43.4,17.5c-17.2,3.6-34.7,5.4-52.2,5.3c-18,0.1-36-1.5-53.6-4.8
	c-15.3-2.7-30.2-7.5-44.1-14.4V594c13.4,11.3,28.6,20.2,45.1,26.1c15.8,5.8,32.4,8.7,49.2,8.8c8.6,0.1,17.1-0.8,25.5-2.6
	c6.4-1.4,12.5-3.9,18.1-7.3c4.5-2.7,8.2-6.5,10.9-11c2.4-4.2,3.6-9,3.6-13.8c0.1-6.5-1.9-12.8-5.8-18c-4.3-5.8-9.6-10.7-15.6-14.6
	c-7.5-5-15.4-9.3-23.5-12.9c-9.1-4.2-18.9-8.4-29.4-12.7c-23-8.6-43.6-22.6-59.9-41c-13.3-16.6-20.3-37.3-19.7-58.5
	c-0.4-16,3.3-31.9,10.8-46.1c7.1-12.8,17.1-23.7,29.3-31.8c13.1-8.6,27.6-14.8,42.9-18.3c16.9-4,34.2-6,51.6-5.9
	c15.9-0.1,31.8,0.9,47.5,3.2c13,2,25.8,5.3,38.1,10v71.6c-5.9-4.1-12.2-7.6-18.8-10.5c-6.8-3-13.8-5.5-20.9-7.5
	c-7-2-14.2-3.4-21.4-4.4c-6.7-0.9-13.4-1.4-20.2-1.5c-8-0.1-16.1,0.8-23.9,2.5c-6.4,1.4-12.5,3.8-18.2,7.1
	c-4.6,2.7-8.5,6.4-11.5,10.9c-2.7,4.3-4.1,9.2-4.1,14.3c-0.1,5.5,1.5,10.9,4.5,15.5c3.5,5,7.9,9.4,12.9,13c6.4,4.6,13.2,8.6,20.3,12
	c8,3.9,17,7.9,27,12.1c12.7,5.3,25.1,11.4,36.9,18.3c10.3,6,19.8,13.4,28.1,21.9c7.7,8,13.8,17.5,17.9,27.9
	C693.3,578.4,691.6,608.9,679,635.4z"/>
</svg>
